<svg width="16" height="16" viewBox="0 0 16 16" fill="none" xmlns="http://www.w3.org/2000/svg">
<path opacity="0.3" fill-rule="evenodd" clip-rule="evenodd" d="M12.0211 10.5991L13.7074 12.2965C14.0975 12.6862 14.0975 13.318 13.7074 13.7077C13.3173 14.0974 12.6848 14.0974 12.2947 13.7077L10.6084 12.0103C9.72328 12.6197 8.65044 12.9765 7.49417 12.9765C4.45982 12.9765 2 10.5193 2 7.48824C2 4.45717 4.45982 2 7.49417 2C10.5285 2 12.9883 4.45717 12.9883 7.48824C12.9883 8.64326 12.6311 9.71495 12.0211 10.5991ZM7.49417 10.9808C9.42511 10.9808 10.9905 9.41711 10.9905 7.48824C10.9905 5.55938 9.42511 3.99572 7.49417 3.99572C5.56322 3.99572 3.99788 5.55938 3.99788 7.48824C3.99788 9.41711 5.56322 10.9808 7.49417 10.9808Z" fill="black"/>
</svg>
