<svg width="14" height="8" viewBox="0 0 14 8" fill="none" xmlns="http://www.w3.org/2000/svg">
<path fill-rule="evenodd" clip-rule="evenodd" d="M7.00076 4.11161C4.93245 4.11161 3.4167 3.16002 2.40453 2.18834C1.89829 1.70235 1.52298 1.21552 1.27481 0.850864C1.15096 0.668882 1.05945 0.51832 0.999727 0.414881C0.969882 0.363191 0.948028 0.323362 0.934092 0.297367L0.919135 0.269033L0.915881 0.262695C0.915953 0.26284 0.916033 0.263 0.500764 0.470635C0.0854938 0.67827 0.0858372 0.678955 0.085941 0.679162L0.0865795 0.680431L0.0884315 0.684087L0.0944399 0.695791C0.0994708 0.705513 0.106557 0.719038 0.11571 0.736111C0.134014 0.770252 0.160603 0.818622 0.195571 0.879185C0.265473 1.00025 0.369071 1.17041 0.507146 1.3733C0.782823 1.77838 1.19863 2.31787 1.76147 2.8582C2.14315 3.22462 2.59473 3.59334 3.11763 3.92071L1.88536 6.5843L2.79294 7.00418L3.99979 4.39553C4.71689 4.72156 5.53756 4.95521 6.46426 5.02123V7.99981H7.46426V5.02606C8.4246 4.96716 9.27235 4.72827 10.0102 4.39167L11.2188 7.00418L12.1264 6.5843L10.8918 3.91573C11.4114 3.5896 11.8603 3.22276 12.2401 2.8582C12.8029 2.31787 13.2187 1.77838 13.4944 1.3733C13.6325 1.17041 13.7361 1.00025 13.806 0.879185C13.8409 0.818622 13.8675 0.770252 13.8858 0.736111C13.895 0.719038 13.9021 0.705513 13.9071 0.695791L13.9131 0.684087L13.9149 0.680431L13.9158 0.678669C13.9159 0.678462 13.916 0.67827 13.5008 0.470635C13.2269 0.333725 13.1336 0.287211 13.1018 0.271368L13.1018 0.271358L13.1018 0.271355C13.0854 0.263184 13.0854 0.263183 13.0854 0.263134L13.0824 0.269033L13.0674 0.297367C13.0535 0.323362 13.0316 0.363191 13.0018 0.414881C12.9421 0.51832 12.8506 0.668882 12.7267 0.850864C12.4785 1.21552 12.1032 1.70235 11.597 2.18834C10.5848 3.16002 9.06907 4.11161 7.00076 4.11161Z" fill="#808899"/>
</svg>
