<svg width="40" height="24" viewBox="0 0 40 24" fill="none" xmlns="http://www.w3.org/2000/svg">
<path fill-rule="evenodd" clip-rule="evenodd" d="M37.4194 0H10.9749C10.2929 0 9.63488 0.274703 9.15166 0.764996L0.753456 10.3518C-0.274667 11.395 -0.24725 13.0988 0.815143 14.1072L9.43954 23.2941C9.9159 23.7462 10.5465 24 11.2011 24H37.4228C38.8451 24 40 22.8282 40 21.3851V2.61489C39.9966 1.17183 38.8416 0 37.4194 0ZM37.4194 2.08635C37.7073 2.08635 37.9403 2.32281 37.9403 2.61489V21.3851C37.9403 21.6772 37.7073 21.9136 37.4194 21.9136H11.2011C11.0674 21.9136 10.944 21.8615 10.8446 21.7711L2.22024 12.5877C2.08659 12.4625 2.05574 12.313 2.05574 12.2121C2.05574 12.1113 2.07973 11.9618 2.20654 11.8296L10.6082 2.24283C10.7076 2.14199 10.8378 2.08983 10.9749 2.08983H37.4194V2.08635ZM17.5923 17.8399C17.3284 17.8399 17.0645 17.7391 16.8658 17.5339C16.4648 17.1271 16.4648 16.4664 16.8658 16.0595L20.8642 12.0026L16.8623 7.94355C16.4613 7.53671 16.4613 6.87603 16.8623 6.46919C17.2633 6.06235 17.9144 6.06235 18.3154 6.46919L22.318 10.5275L26.3793 6.40669C26.7803 5.99985 27.4314 5.99985 27.8324 6.40669C28.2334 6.81353 28.2334 7.47421 27.8324 7.88105L23.7723 12.002L27.8324 16.1186C28.2333 16.5254 28.2333 17.1861 27.8324 17.5929C27.6302 17.7981 27.3697 17.9024 27.1058 17.9024C26.842 17.9024 26.5781 17.8016 26.3793 17.5964L22.3185 13.4777L18.3188 17.5374C18.1166 17.7391 17.8528 17.8399 17.5923 17.8399Z" fill="black" fill-opacity="0.9"/>
</svg>
