<?xml version="1.0" encoding="UTF-8"?>
<!DOCTYPE svg PUBLIC "-//W3C//DTD SVG 1.1//EN" "http://www.w3.org/Graphics/SVG/1.1/DTD/svg11.dtd">
<!-- Creator: CorelDRAW 2020 (64-Bit) -->
<svg xmlns="http://www.w3.org/2000/svg" xml:space="preserve" width="3.8098mm" height="4.6566mm" version="1.1" style="shape-rendering:geometricPrecision; text-rendering:geometricPrecision; image-rendering:optimizeQuality; fill-rule:evenodd; clip-rule:evenodd"
viewBox="0 0 380.98 465.66"
 xmlns:xlink="http://www.w3.org/1999/xlink"
 xmlns:xodm="http://www.corel.com/coreldraw/odm/2003"
 t="1724417544243"
 p-id="1623">
 <defs>
  <style type="text/css">
   <![CDATA[
    .fil0 {fill:#0F62FE}
    .fil1 {fill:white}
   ]]>
  </style>
 </defs>
 <g id="图层_x0020_1">
  <metadata id="CorelCorpID_0Corel-Layer"/>
  <path class="fil0" d="M20.27 230.29l161.57 -188.13c4.76,-5.54 12.54,-5.54 17.3,0l161.57 188.13c4.46,5.19 4.46,13.69 0,18.88l-1.08 1.25c-4.46,5.19 -11.75,5.19 -16.21,0l-18.81 -21.9 0 178.94c0,15.7 -10.97,28.47 -24.45,28.47l-219.34 0.01c-13.48,0 -24.45,-12.78 -24.45,-28.48l0 -178.94 -18.81 21.9c-4.46,5.19 -11.75,5.19 -16.21,0l-1.08 -1.25c-4.46,-5.2 -4.46,-13.69 0,-18.88z"/>
  <path class="fil1" d="M190.49 331.83c-22.59,0 -43.26,-14.43 -53.94,-37.65 -3.18,-6.93 -10.59,-9.54 -16.55,-5.83 -5.95,3.71 -8.19,12.34 -5,19.27 14.94,32.5 43.87,52.68 75.49,52.68 31.62,0 60.55,-20.19 75.49,-52.68 3.19,-6.93 0.95,-15.56 -5,-19.27 -5.96,-3.71 -13.37,-1.1 -16.55,5.83 -10.68,23.22 -31.35,37.65 -53.94,37.65z"/>
 </g>
</svg>
