<svg width="24" height="24" viewBox="0 0 24 24" fill="none" xmlns="http://www.w3.org/2000/svg">
<path d="M19.9091 2H4.09091C3.54545 2 3 2.55 3 3.1V20.9C3 21.45 3.54545 22 4.09091 22H19.9091C20.4545 22 21 21.45 21 20.9V3.1C21 2.55 20.4545 2 19.9091 2ZM14.7818 19.48H6.6C6.05455 19.48 5.50909 18.93 5.50909 18.38C5.50909 17.83 6.05455 17.28 6.6 17.28H14.7818C15.3273 17.28 15.8727 17.83 15.8727 18.38C15.8727 18.93 15.4364 19.48 14.7818 19.48ZM17.2909 15.41H6.6C6.05455 15.41 5.50909 14.86 5.50909 14.31C5.50909 13.76 6.05455 13.21 6.6 13.21H17.4C17.9455 13.21 18.4909 13.76 18.4909 14.31C18.4909 14.86 17.9455 15.41 17.2909 15.41ZM18.6 8.37C18.6 8.59 18.2727 8.81 18.0545 8.59L16.8545 7.38L12.6 11.01C12.3818 11.23 12.0545 11.23 11.7273 11.01L9.87273 9.03C9.65455 8.81 9.21818 8.81 9 9.03L7.03636 11.01C6.6 11.34 6.05455 11.34 5.72727 11.01C5.4 10.68 5.4 10.02 5.72727 9.69L9 6.39C9.21818 6.17 9.65455 6.17 9.87273 6.39L11.8364 8.37C12.0545 8.7 12.3818 8.7 12.6 8.48L15.4364 6.06L14.4545 5.07C14.2364 4.85 14.3455 4.52 14.6727 4.52H18.2727C18.4909 4.52 18.6 4.63 18.6 4.85V8.37Z" fill="#315EFB"/>
</svg>
