<?xml version="1.0" encoding="UTF-8"?>
<!DOCTYPE svg PUBLIC "-//W3C//DTD SVG 1.1//EN" "http://www.w3.org/Graphics/SVG/1.1/DTD/svg11.dtd">
<!-- Creator: CorelDRAW 2020 (64-Bit) -->
<svg xmlns="http://www.w3.org/2000/svg" xml:space="preserve" width="3.8098mm" height="4.6566mm" version="1.1" style="shape-rendering:geometricPrecision; text-rendering:geometricPrecision; image-rendering:optimizeQuality; fill-rule:evenodd; clip-rule:evenodd"
viewBox="0 0 380.98 465.66"
 xmlns:xlink="http://www.w3.org/1999/xlink"
 xmlns:xodm="http://www.corel.com/coreldraw/odm/2003">
 <defs>
  <style type="text/css">
   <![CDATA[
    .str0 {stroke:#222222;stroke-width:7.62;stroke-miterlimit:22.9256}
    .fil0 {fill:none}
   ]]>
  </style>
 </defs>
 <g id="图层_x0020_1">
  <metadata id="CorelCorpID_0Corel-Layer"/>
  <path class="fil0 str0" d="M207.62 263.26l32.73 0 29.9 0 22.87 0 11.97 0c6.8,0 12.55,-2.28 17.24,-6.85 4.69,-4.57 8.56,-12.75 11.61,-24.54 1.4,-5.61 3.46,-13.27 6.16,-22.99 2.69,-9.73 5.45,-19.53 8.26,-29.41 2.82,-9.87 5.34,-18.94 7.57,-27.19 2.23,-8.26 3.7,-13.71 4.4,-16.36 0.71,-2.66 1.11,-5.82 1.23,-9.51 0.12,-3.68 -0.58,-7.14 -2.11,-10.39 -1.53,-3.24 -4.1,-5.96 -7.74,-8.18 -3.64,-2.21 -8.74,-3.31 -15.31,-3.31l-240.68 0c-0.7,-5.9 -1.4,-11.5 -2.11,-16.81 -0.46,-4.42 -0.93,-8.77 -1.4,-13.04 -0.47,-4.27 -0.94,-7.59 -1.41,-9.95 -0.47,-2.06 -1.06,-4.56 -1.76,-7.51 -0.7,-2.95 -1.87,-5.75 -3.52,-8.41 -1.64,-2.65 -3.87,-4.86 -6.68,-6.63 -2.82,-1.77 -6.57,-2.65 -11.26,-2.65l-11.97 0 -8.79 0 -7.04 0 -7.74 0c-5.4,0 -9.68,1.91 -12.85,5.75 -3.16,3.83 -4.74,8.69 -4.74,14.59 0,2.94 0.29,6.18 0.87,9.73 0.59,3.53 1.65,6.85 3.17,9.95 1.53,3.09 3.47,5.74 5.81,7.95 2.34,2.21 5.28,3.32 8.8,3.32l26.38 0c5.63,36.55 10.68,69.71 15.13,99.48 1.88,12.68 3.76,25.28 5.63,37.81 1.88,12.53 3.58,23.87 5.11,34.05 1.52,10.17 2.81,18.64 3.87,25.42 1.05,6.78 1.7,11.05 1.93,12.82 0.7,4.42 1.71,9.14 2.99,14.15 1.29,5.01 2.99,9.66 5.1,13.93 2.12,4.27 4.76,7.74 7.92,10.39 3.17,2.66 7.1,3.98 11.79,3.98l19.35 0 33.78 0 41.17 0 40.47 0 32.72 0 16.89 0c6.57,0 10.96,-2.14 13.19,-6.41 2.23,-4.28 3.34,-9.36 3.34,-15.26 0,-12.08 -5.63,-18.13 -16.89,-18.13l-177.33 0 -5.28 -39.79 87.26 0z"/>
  <path class="fil0 str0" d="M267.97 369.08c-4.21,1.8 -7.86,4.29 -10.96,7.5 -3.09,3.2 -5.57,6.97 -7.43,11.33 -1.85,4.35 -2.78,8.97 -2.78,13.83 0,4.87 0.93,9.48 2.78,13.83 1.86,4.35 4.34,8.13 7.43,11.33 3.1,3.2 6.75,5.77 10.96,7.69 4.2,1.92 8.66,2.88 13.37,2.88 4.7,0 9.22,-0.96 13.55,-2.88 4.33,-1.92 8.05,-4.49 11.14,-7.69 3.09,-3.2 5.57,-6.98 7.43,-11.33 1.86,-4.35 2.78,-8.96 2.78,-13.83 0,-4.86 -0.92,-9.48 -2.78,-13.83 -1.86,-4.36 -4.34,-8.13 -7.43,-11.33 -3.09,-3.21 -6.81,-5.7 -11.14,-7.5 -4.33,-1.79 -8.85,-2.69 -13.55,-2.69 -4.71,0 -9.17,0.9 -13.37,2.69z"/>
  <path class="fil0 str0" d="M161.39 400.97c0,-4.86 -0.87,-9.48 -2.6,-13.83 -1.74,-4.35 -4.22,-8.13 -7.43,-11.34 -3.22,-3.2 -6.93,-5.69 -11.14,-7.48 -4.21,-1.79 -8.67,-2.7 -13.37,-2.7 -4.95,0 -9.47,0.91 -13.56,2.7 -4.08,1.79 -7.73,4.28 -10.95,7.48 -3.22,3.21 -5.7,6.99 -7.43,11.34 -1.73,4.35 -2.6,8.97 -2.6,13.83 0,4.87 0.87,9.48 2.6,13.83 1.73,4.36 4.21,8.14 7.43,11.34 3.22,3.2 6.87,5.76 10.95,7.68 4.09,1.92 8.61,2.88 13.56,2.88 4.7,0 9.16,-0.96 13.37,-2.88 4.21,-1.92 7.92,-4.48 11.14,-7.68 3.21,-3.2 5.69,-6.98 7.43,-11.34 1.73,-4.35 2.6,-8.96 2.6,-13.83z"/>
 </g>
</svg>
