<svg width="24" height="24" viewBox="0 0 24 24" fill="none" xmlns="http://www.w3.org/2000/svg">
<path d="M8.38138 17.8444C8.66385 17.8444 8.93146 17.8963 9.18419 18C9.43693 18.1037 9.65993 18.2481 9.8532 18.4333C10.0465 18.6185 10.1951 18.837 10.2992 19.0889C10.4033 19.3407 10.4553 19.6074 10.4553 19.8889C10.4553 20.1704 10.4033 20.437 10.2992 20.6889C10.1951 20.9407 10.0465 21.1593 9.8532 21.3444C9.65993 21.5296 9.43693 21.6778 9.18419 21.7889C8.93146 21.9 8.66385 21.9556 8.38138 21.9556C8.08405 21.9556 7.81273 21.9 7.56743 21.7889C7.32212 21.6778 7.10284 21.5296 6.90957 21.3444C6.7163 21.1593 6.56763 20.9407 6.46356 20.6889C6.3595 20.437 6.30746 20.1704 6.30746 19.8889C6.30746 19.6074 6.3595 19.3407 6.46356 19.0889C6.56763 18.837 6.7163 18.6185 6.90957 18.4333C7.10284 18.2481 7.32212 18.1037 7.56743 18C7.81273 17.8963 8.08405 17.8444 8.38138 17.8444ZM17.6583 17.8889C17.9408 17.8889 18.2121 17.9407 18.4723 18.0444C18.7324 18.1481 18.9554 18.2926 19.1413 18.4778C19.3271 18.663 19.4758 18.8815 19.5873 19.1333C19.6988 19.3852 19.7545 19.6519 19.7545 19.9333C19.7545 20.2148 19.6988 20.4815 19.5873 20.7333C19.4758 20.9852 19.3271 21.2037 19.1413 21.3889C18.9554 21.5741 18.7324 21.7222 18.4723 21.8333C18.2121 21.9444 17.9408 22 17.6583 22C17.3758 22 17.1082 21.9444 16.8555 21.8333C16.6027 21.7222 16.3835 21.5741 16.1976 21.3889C16.0118 21.2037 15.8631 20.9852 15.7516 20.7333C15.6401 20.4815 15.5844 20.2148 15.5844 19.9333C15.5844 19.6519 15.6401 19.3852 15.7516 19.1333C15.8631 18.8815 16.0118 18.663 16.1976 18.4778C16.3835 18.2926 16.6027 18.1481 16.8555 18.0444C17.1082 17.9407 17.3758 17.8889 17.6583 17.8889ZM21.4047 5.26667C21.821 5.26667 22.1444 5.32222 22.3748 5.43333C22.6052 5.54444 22.7688 5.68148 22.8654 5.84444C22.962 6.00741 23.0066 6.18148 22.9992 6.36667C22.9918 6.55185 22.9658 6.71111 22.9212 6.84444C22.8766 6.97778 22.7836 7.25185 22.6424 7.66667C22.5012 8.08148 22.3413 8.53704 22.1629 9.03333C21.9845 9.52963 21.8099 10.0222 21.6389 10.5111C21.4679 11 21.3378 11.3852 21.2486 11.6667C21.0554 12.2593 20.8101 12.6704 20.5127 12.9C20.2154 13.1296 19.8511 13.2444 19.42 13.2444H18.6618H17.2123H15.3168H13.2428H7.71238L8.04688 15.2444H19.2862C19.9998 15.2444 20.3566 15.5481 20.3566 16.1556C20.3566 16.4519 20.286 16.7074 20.1448 16.9222C20.0035 17.137 19.7248 17.2444 19.3085 17.2444H18.2381H16.1642H13.5996H10.9905H8.84969H7.62318C7.32584 17.2444 7.07682 17.1778 6.87612 17.0444C6.67542 16.9111 6.50816 16.737 6.37436 16.5222C6.24056 16.3074 6.13278 16.0741 6.05101 15.8222C5.96924 15.5704 5.90606 15.3333 5.86146 15.1111C5.84659 15.0222 5.80571 14.8074 5.7388 14.4667C5.6719 14.1259 5.59014 13.7 5.4935 13.1889C5.39687 12.6778 5.28908 12.1074 5.17015 11.4778C5.05121 10.8481 4.93228 10.2148 4.81334 9.57778C4.53087 8.08148 4.21124 6.41481 3.85443 4.57778H2.18191C1.95891 4.57778 1.77308 4.52222 1.62441 4.41111C1.47574 4.3 1.35309 4.16667 1.25645 4.01111C1.15982 3.85556 1.09292 3.68889 1.05575 3.51111C1.01858 3.33333 1 3.17037 1 3.02222C1 2.72593 1.10035 2.48148 1.30105 2.28889C1.50176 2.0963 1.77308 2 2.11501 2H2.60562H3.05162H3.60913H4.36734C4.66468 2 4.90254 2.04444 5.08095 2.13333C5.25935 2.22222 5.40058 2.33333 5.50465 2.46667C5.60872 2.6 5.68305 2.74074 5.72765 2.88889C5.77225 3.03704 5.80942 3.16296 5.83916 3.26667C5.86889 3.38519 5.89862 3.55185 5.92836 3.76667C5.95809 3.98148 5.98782 4.2 6.01756 4.42222C6.06216 4.68889 6.10676 4.97037 6.15136 5.26667H21.4047Z" fill="#0F62FE"/>
</svg>
