<?xml version="1.0" encoding="UTF-8"?>
<!DOCTYPE svg PUBLIC "-//W3C//DTD SVG 1.1//EN" "http://www.w3.org/Graphics/SVG/1.1/DTD/svg11.dtd">
<!-- Creator: CorelDRAW 2020 (64-Bit) -->
<svg xmlns="http://www.w3.org/2000/svg" xml:space="preserve" width="3.8098mm" height="4.6566mm" version="1.1" style="shape-rendering:geometricPrecision; text-rendering:geometricPrecision; image-rendering:optimizeQuality; fill-rule:evenodd; clip-rule:evenodd"
viewBox="0 0 380.98 465.66"
 xmlns:xlink="http://www.w3.org/1999/xlink"
 xmlns:xodm="http://www.corel.com/coreldraw/odm/2003">
 <defs>
  <style type="text/css">
   <![CDATA[
    .str0 {stroke:#222222;stroke-width:7.62;stroke-miterlimit:22.9256}
    .fil0 {fill:none}
   ]]>
  </style>
 </defs>
 <g id="图层_x0020_1">
  <metadata id="CorelCorpID_0Corel-Layer"/>
  <path class="fil0 str0" d="M322.35 40.1l-275.31 0c-9.49,0 -18.99,10.94 -18.99,21.89l0 354.15c0,10.79 9.22,21.56 18.58,21.88 0.13,0.01 0.27,0.01 0.41,0.01l275.31 0c9.49,0 18.99,-10.94 18.99,-21.89l0 -354.15c0,-9.84 -7.68,-19.68 -16.13,-21.56 -0.14,-0.01 -0.28,-0.01 -0.4,-0.09 -0.82,-0.16 -1.64,-0.24 -2.46,-0.24z"/>
  <path class="fil0 str0" d="M195.36 174.03c-3.74,4.04 -9.33,4.04 -13.06,-2.02l-33.56 -36.38c-3.74,-4.04 -11.19,-4.04 -14.93,0l-55.94 60.63c-5.59,6.06 -5.59,18.18 0,24.25 5.6,6.06 14.92,6.06 22.38,0l33.56 -36.38c3.74,-4.04 11.19,-4.04 14.93,0l31.69 36.38c5.6,4.04 11.19,4.04 14.93,0l72.72 -66.69 20.51 22.23c3.73,4.04 9.33,0 9.33,-4.04l0 -64.68c0,-4.04 -1.87,-6.06 -5.6,-6.06l-61.53 0c-5.6,0 -7.47,6.06 -3.74,10.1l16.79 18.2 -48.48 44.46z"/>
  <path class="fil0 str0" d="M92.33 301.35l178.03 0c10.9,0 19.98,-10.11 19.98,-20.21 0,-10.1 -9.08,-20.21 -18.16,-20.21l-179.85 0c-9.08,0 -18.17,10.11 -18.17,20.21 0,10.1 9.09,20.21 18.17,20.21z"/>
  <path class="fil0 str0" d="M234.11 335.71l-141.13 0c-9.41,0 -18.82,10.1 -18.82,20.2 0,10.11 9.41,20.22 18.82,20.22l141.13 0c11.29,0 18.82,-10.11 18.82,-20.22 0,-10.1 -9.41,-20.2 -18.82,-20.2z"/>
 </g>
</svg>
