<?xml version="1.0" encoding="UTF-8"?>
<!DOCTYPE svg PUBLIC "-//W3C//DTD SVG 1.1//EN" "http://www.w3.org/Graphics/SVG/1.1/DTD/svg11.dtd">
<!-- Creator: CorelDRAW 2020 (64-Bit) -->
<svg xmlns="http://www.w3.org/2000/svg" xml:space="preserve" width="3.8098mm" height="4.6566mm" version="1.1" style="shape-rendering:geometricPrecision; text-rendering:geometricPrecision; image-rendering:optimizeQuality; fill-rule:evenodd; clip-rule:evenodd"
viewBox="0 0 380.98 465.66"
 xmlns:xlink="http://www.w3.org/1999/xlink"
 xmlns:xodm="http://www.corel.com/coreldraw/odm/2003">
 <defs>
  <style type="text/css">
   <![CDATA[
    .str0 {stroke:#222222;stroke-width:7.62;stroke-miterlimit:22.9256}
    .fil0 {fill:none}
   ]]>
  </style>
 </defs>
 <g id="图层_x0020_1">
  <metadata id="CorelCorpID_0Corel-Layer"/>
  <path class="fil0 str0" d="M64.22 429.81l248.17 0c17.92,0 32.56,-18.12 32.56,-40.23l0 -257.23c0,-24.12 -14.64,-40.18 -34.18,-40.18l-83.82 0c-27.68,0 -19.53,-60.3 -48.84,-60.3l-113.89 0c-17.91,0 -32.54,18.09 -32.54,40.19l0 317.52c0,22.14 14.63,40.23 32.54,40.23z"/>
  <path class="fil0 str0" d="M238.88 288.66l-92.74 0c0,0 -45.38,-6.38 -46.54,-23.97 0.28,6.45 3.84,56.17 48.04,56.17l91.24 0 0 35.85c0,0 0.65,2.19 4.45,2.69 2.53,0.36 4.11,-0.97 4.65,-1.4l60.32 -44.83c0,0 5.66,-3.01 5.66,-8.98 0.14,-3.24 -1.36,-6.33 -4.01,-8.2l-60.69 -43.65c0,0 -2.5,-1.61 -5.93,-0.65 -4.27,1.15 -4.45,3.41 -4.45,3.41l0 33.56z"/>
  <path class="fil0 str0" d="M138.73 248.01l0 -33.17 92.46 0c0,0 45.36,6.31 46.5,23.7 -0.28,-6.36 -3.82,-55.55 -48,-55.55l-90.96 0 0 -35.42c0,0 0.11,-1.9 -3.47,-2.72 -2.97,-0.68 -5.87,1.43 -5.87,1.43l-60.25 44.3c0,0 -5.66,3 -5.66,8.91 0,5.76 4.01,8.08 4.01,8.08l60.62 43.16c0,0 3.86,1.43 7.12,0.72 3.54,-0.76 3.5,-3.44 3.5,-3.44z"/>
 </g>
</svg>
