<svg width="24" height="24" viewBox="0 0 24 24" fill="none" xmlns="http://www.w3.org/2000/svg">
<path d="M19.8569 21.9312H4.07065C2.93116 21.9312 2 21.0254 2 19.9167V4.01268C2 2.9058 2.93116 2 4.07065 2H11.3152C13.1793 2 12.6612 5.01993 14.4221 5.01993H19.7536C20.9964 5.01993 21.9275 5.82428 21.9275 7.03261V19.9167C21.9275 21.0236 20.9964 21.9312 19.8569 21.9312ZM14.0453 9.38587H9.44022V7.59239C9.44022 7.59239 9.44565 7.49638 9.26449 7.45471C9.11413 7.42029 8.96739 7.52717 8.96739 7.52717L5.91667 9.76993C5.91667 9.76993 5.63043 9.9221 5.63043 10.221C5.63043 10.5127 5.83333 10.6304 5.83333 10.6304L8.90217 12.8152C8.90217 12.8152 9.09783 12.8877 9.26268 12.8514C9.44203 12.8134 9.44022 12.6775 9.44022 12.6775V10.9982H14.1214C14.1214 10.9982 16.4764 11.3261 16.4764 12.2319C16.4764 12.2319 16.4366 9.38587 14.0453 9.38587ZM18.1087 15.1069L15.0362 12.8967C15.0362 12.8967 14.9094 12.8152 14.7355 12.8641C14.5199 12.9221 14.5109 13.0362 14.5109 13.0362V14.7355H9.81522C9.81522 14.7355 7.45833 14.404 7.45833 13.4873C7.45833 13.4873 7.49819 16.3659 9.8913 16.3659H14.5109V18.1812C14.5109 18.1812 14.5435 18.2917 14.7355 18.317C14.8641 18.3351 14.9438 18.2681 14.971 18.2464L18.0254 15.9764C18.0254 15.9764 18.3116 15.8243 18.3116 15.5217C18.3189 15.3579 18.2425 15.2016 18.1087 15.1069Z" fill="#0F62FE"/>
</svg>
