<svg width="24" height="24" viewBox="0 0 24 24" fill="none" xmlns="http://www.w3.org/2000/svg">
<path d="M21.9255 11.0888C21.8474 10.6462 21.4276 10.1971 20.9922 10.0974L20.6669 10.0219V10.0219C19.8722 9.77882 19.2011 9.2401 18.792 8.51683V8.51683C18.3753 7.78388 18.252 6.92028 18.4469 6.10006L18.549 5.78973C18.6792 5.35964 18.5097 4.76632 18.1685 4.47187C18.1685 4.47187 17.8628 4.20892 17.0003 3.70333C16.1378 3.19775 15.7652 3.06237 15.7652 3.06237C15.3457 2.90616 14.7574 3.0543 14.4517 3.38493L14.2243 3.63174V3.63174C12.9801 4.82864 11.0111 4.82507 9.77125 3.62367L9.55225 3.38545C9.25043 3.05482 8.65825 2.90772 8.23872 3.06289C8.23872 3.06289 7.86242 3.20217 6.99993 3.70385C6.13719 4.21361 5.83537 4.47629 5.83537 4.47629C5.49423 4.76684 5.32574 5.35626 5.4549 5.79025L5.54917 6.10475V6.10475C5.74172 6.92363 5.61823 7.78499 5.20334 8.51683V8.51683C4.79368 9.24504 4.11774 9.78625 3.31743 10.0268L3.00363 10.0984C2.57239 10.1981 2.14896 10.6438 2.07057 11.0898C2.07057 11.0898 2 11.4881 2 12.4993C2 13.5105 2.07057 13.9088 2.07057 13.9088C2.1487 14.3545 2.56848 14.8005 3.00363 14.8999L3.30962 14.9708H3.30962C4.11188 15.2111 4.78944 15.7535 5.19944 16.4836C5.6161 17.2166 5.7394 18.0802 5.54449 18.9004L5.45412 19.2068C5.32391 19.6369 5.49344 20.23 5.83459 20.5247C5.83459 20.5247 6.14031 20.7874 7.0028 21.2932C7.86529 21.7991 8.23794 21.9342 8.23794 21.9342C8.65747 22.0904 9.24574 21.942 9.55146 21.6116L9.76709 21.3773V21.3773C11.0131 20.1705 12.9929 20.1723 14.2368 21.3812L14.4524 21.6155C14.7543 21.9462 15.3464 22.0932 15.766 21.9381C15.766 21.9381 16.1423 21.7988 17.005 21.2971C17.8678 20.7954 18.1693 20.5286 18.1693 20.5286C18.5105 20.238 18.6792 19.6434 18.5498 19.211L18.4555 18.8923V18.8923C18.2626 18.0759 18.3859 17.2168 18.8006 16.4875V16.4875C19.2117 15.7584 19.8888 15.2164 20.6904 14.9747L20.9964 14.9031C21.4276 14.8034 21.851 14.3576 21.9294 13.9117C21.9294 13.9117 22 13.5136 22 12.5022C21.9961 11.4868 21.9255 11.0888 21.9255 11.0888V11.0888ZM12.002 16.5471C9.8025 16.5471 8.01581 14.7364 8.01581 12.4975C8.01581 10.264 9.7999 8.45227 12.0033 8.45227C14.2027 8.45227 15.9907 10.264 15.9907 12.5014C15.9845 14.7364 14.2014 16.5471 12.002 16.5471Z" fill="#0F62FE"/>
</svg>
