<svg width="14" height="10" viewBox="0 0 14 10" fill="none" xmlns="http://www.w3.org/2000/svg">
<path fill-rule="evenodd" clip-rule="evenodd" d="M1.27424 5.38044C1.1711 5.22888 1.09038 5.09912 1.03178 5.00021C1.09038 4.90131 1.1711 4.77154 1.27424 4.61998C1.52241 4.25532 1.89773 3.7685 2.40396 3.28251C3.41614 2.31083 4.93189 1.35924 7.0002 1.35924C9.06851 1.35924 10.5843 2.31083 11.5964 3.28251C12.1027 3.7685 12.478 4.25532 12.7262 4.61998C12.8293 4.77154 12.91 4.90131 12.9686 5.00021C12.91 5.09911 12.8293 5.22888 12.7262 5.38044C12.478 5.7451 12.1027 6.23193 11.5964 6.71791C10.5843 7.6896 9.06851 8.64119 7.0002 8.64119C4.93189 8.64119 3.41614 7.6896 2.40396 6.71791C1.89773 6.23193 1.52241 5.7451 1.27424 5.38044ZM13.5002 5.00021C13.9155 4.79258 13.9154 4.79239 13.9153 4.79218L13.5002 5.00021ZM13.915 5.20874L13.9144 5.21001L13.9125 5.21366L13.9065 5.22537C13.9015 5.23509 13.8944 5.24862 13.8852 5.26569C13.8669 5.29983 13.8404 5.3482 13.8054 5.40876C13.7355 5.52983 13.6319 5.69999 13.4938 5.90288C13.2181 6.30795 12.8023 6.84745 12.2395 7.38777C11.1135 8.46872 9.37925 9.56976 7.0002 9.56976C4.62114 9.56976 2.88689 8.46872 1.7609 7.38777C1.19806 6.84745 0.782255 6.30795 0.506578 5.90288C0.368503 5.69999 0.264905 5.52983 0.195003 5.40876C0.160035 5.3482 0.133446 5.29983 0.115142 5.26569C0.105989 5.24862 0.0989028 5.23509 0.0938718 5.22537L0.0878635 5.21366L0.0860115 5.21001L0.0849258 5.20785C0.0195712 5.07714 0.0200183 4.92239 0.0853729 4.79169C0.0852691 4.79189 0.0849258 4.79258 0.500196 5.00021L0.0853729 4.79169L0.0860115 4.79042L0.0878635 4.78676L0.0938718 4.77506C0.0989028 4.76534 0.105989 4.75181 0.115142 4.73474C0.133446 4.7006 0.160035 4.65223 0.195003 4.59166C0.264905 4.4706 0.368503 4.30043 0.506578 4.09755C0.782255 3.69247 1.19806 3.15298 1.7609 2.61265C2.88689 1.5317 4.62114 0.430664 7.0002 0.430664C9.37925 0.430664 11.1135 1.5317 12.2395 2.61265C12.8023 3.15298 13.2181 3.69247 13.4938 4.09755C13.6319 4.30043 13.7355 4.4706 13.8054 4.59166C13.8404 4.65223 13.8669 4.7006 13.8852 4.73474C13.8944 4.75181 13.9015 4.76534 13.9065 4.77506L13.9125 4.78676L13.9144 4.79042L13.9153 4.79218C13.9806 4.92289 13.9804 5.07803 13.915 5.20874ZM13.5002 5.00021L13.915 5.20874C13.9151 5.20853 13.9155 5.20785 13.5002 5.00021ZM5.40541 5.00024C5.40541 4.15208 6.09297 3.46452 6.94112 3.46452C7.78927 3.46452 8.47684 4.15208 8.47684 5.00024C8.47684 5.84839 7.78927 6.53595 6.94112 6.53595C6.09297 6.53595 5.40541 5.84839 5.40541 5.00024ZM6.94112 2.53595C5.58014 2.53595 4.47684 3.63925 4.47684 5.00024C4.47684 6.36122 5.58014 7.46452 6.94112 7.46452C8.30211 7.46452 9.40541 6.36122 9.40541 5.00024C9.40541 3.63925 8.30211 2.53595 6.94112 2.53595Z" fill="#808899"/>
</svg>
